<svg width="20" height="20" viewBox="0 0 20 20" fill="none" xmlns="http://www.w3.org/2000/svg">
<path d="M8.15275 3.55534C8.20368 3.65901 8.23732 3.77003 8.25239 3.88415L8.53082 8.02407L8.66903 10.1049C8.67046 10.3189 8.70403 10.5315 8.76867 10.7359C8.9356 11.1324 9.33716 11.3844 9.77405 11.3668L16.4313 10.9314C16.7196 10.9266 16.998 11.0344 17.2052 11.2311C17.3779 11.395 17.4894 11.6094 17.5246 11.84L17.5364 11.98C17.2609 15.7947 14.4592 18.9765 10.6524 19.7978C6.84555 20.6191 2.94186 18.8841 1.06071 15.5347C0.518387 14.5616 0.17965 13.4921 0.0643819 12.3888C0.0162286 12.0622 -0.00497452 11.7323 0.000979226 11.4024C-0.00496595 7.31255 2.90747 3.77677 6.98433 2.92438C7.47501 2.84798 7.95603 3.10774 8.15275 3.55534Z" fill="#1949D8"/>
<path opacity="0.4" d="M10.87 0.000575045C15.4299 0.116582 19.2623 3.39554 20 7.81205L19.993 7.84463L19.9728 7.89203L19.9756 8.02212C19.9652 8.19447 19.8986 8.3603 19.784 8.49424C19.6645 8.63377 19.5013 8.72879 19.3216 8.76566L19.212 8.7807L11.5312 9.27836C11.2757 9.30356 11.0213 9.22118 10.8314 9.05171C10.673 8.91049 10.5718 8.71985 10.5432 8.51443L10.0277 0.844818C10.0187 0.818885 10.0187 0.790771 10.0277 0.764837C10.0347 0.553428 10.1278 0.353596 10.2861 0.209986C10.4443 0.0663756 10.6547 -0.00904451 10.87 0.000575045Z" fill="#1949D8"/>
</svg>
