<svg width="18" height="20" viewBox="0 0 18 20" fill="none" xmlns="http://www.w3.org/2000/svg">
<path opacity="0.4" d="M15.8088 7.02076C15.3573 7.02076 14.7592 7.01076 14.0146 7.01076C12.1987 7.01076 10.7055 5.50776 10.7055 3.67476V0.458756C10.7055 0.205756 10.5036 -0.000244141 10.253 -0.000244141H4.96363C2.49517 -0.000244141 0.5 2.02576 0.5 4.50876V15.2838C0.5 17.8888 2.59022 19.9998 5.16958 19.9998H13.0463C15.5058 19.9998 17.5 17.9868 17.5 15.5018V7.47076C17.5 7.21676 17.299 7.01176 17.0475 7.01276C16.6247 7.01576 16.1177 7.02076 15.8088 7.02076Z" fill="#1949D8"/>
<path opacity="0.4" d="M13.084 0.567004C12.785 0.256004 12.263 0.470004 12.263 0.901004V3.538C12.263 4.644 13.174 5.554 14.28 5.554C14.977 5.562 15.945 5.564 16.767 5.562C17.188 5.561 17.402 5.058 17.11 4.754C16.055 3.657 14.166 1.691 13.084 0.567004Z" fill="#1949D8"/>
<path fill-rule="evenodd" clip-rule="evenodd" d="M5.97389 9.38732H9.35889C9.76989 9.38732 10.1039 9.05432 10.1039 8.64332C10.1039 8.23232 9.76989 7.89832 9.35889 7.89832H5.97389C5.56289 7.89832 5.22989 8.23232 5.22989 8.64332C5.22989 9.05432 5.56289 9.38732 5.97389 9.38732ZM5.97399 14.3815H11.418C11.829 14.3815 12.163 14.0485 12.163 13.6375C12.163 13.2265 11.829 12.8925 11.418 12.8925H5.97399C5.56299 12.8925 5.22999 13.2265 5.22999 13.6375C5.22999 14.0485 5.56299 14.3815 5.97399 14.3815Z" fill="#1949D8"/>
</svg>
