<svg width="20" height="18" viewBox="0 0 20 18" fill="none" xmlns="http://www.w3.org/2000/svg">
<path fill-rule="evenodd" clip-rule="evenodd" d="M19.9964 5.37488H15.7618C13.7911 5.37835 12.1947 6.9349 12.1911 8.85632C12.1884 10.7821 13.7867 12.3456 15.7618 12.3482H20V12.6541C20 16.0133 17.9636 17.9998 14.5173 17.9998H5.48356C2.03644 17.9998 0 16.0133 0 12.6541V5.33762C0 1.97838 2.03644 -0.000244141 5.48356 -0.000244141H14.5138C17.96 -0.000244141 19.9964 1.97838 19.9964 5.33762V5.37488ZM4.73956 5.36708H10.3796H10.3831H10.3902C10.8124 5.36535 11.1538 5.02994 11.152 4.61741C11.1502 4.20574 10.8053 3.87293 10.3831 3.87467H4.73956C4.32 3.8764 3.97956 4.20834 3.97778 4.61827C3.976 5.02994 4.31733 5.36535 4.73956 5.36708Z" fill="#1949D8"/>
<path opacity="0.4" d="M14.0374 9.29645C14.2465 10.2476 15.0805 10.9169 16.0326 10.8994H19.2825C19.6787 10.8994 20 10.5714 20 10.1658V7.63427C19.9991 7.2296 19.6787 6.90065 19.2825 6.89978H15.9561C14.8731 6.90326 13.9983 7.80223 14 8.91006C14 9.03972 14.0128 9.16939 14.0374 9.29645Z" fill="#1949D8"/>
<circle cx="16" cy="8.89978" r="1" fill="#1949D8"/>
</svg>
