<svg width="24" height="24" viewBox="0 0 24 24" fill="none" xmlns="http://www.w3.org/2000/svg">
<path opacity="0.4" d="M2.0002 11.0782C2.0502 13.4162 2.1902 17.4152 2.2102 17.8562C2.2812 18.7992 2.6422 19.7522 3.2042 20.4242C3.9862 21.3672 4.9492 21.7882 6.2922 21.7882C8.1482 21.7982 10.1942 21.7982 12.1812 21.7982C14.1762 21.7982 16.1122 21.7982 17.7472 21.7882C19.0712 21.7882 20.0642 21.3562 20.8362 20.4242C21.3982 19.7522 21.7592 18.7892 21.8102 17.8562C21.8302 17.4852 21.9302 13.1442 21.9902 11.0782H2.0002Z" fill="#1949D8"/>
<path d="M11.2454 15.3839V16.6779C11.2454 17.0919 11.5814 17.4279 11.9954 17.4279C12.4094 17.4279 12.7454 17.0919 12.7454 16.6779V15.3839C12.7454 14.9699 12.4094 14.6339 11.9954 14.6339C11.5814 14.6339 11.2454 14.9699 11.2454 15.3839Z" fill="#1949D8"/>
<path fill-rule="evenodd" clip-rule="evenodd" d="M10.2113 14.5561C10.1113 14.9191 9.7623 15.1511 9.3843 15.1011C6.8333 14.7451 4.3953 13.8401 2.3373 12.4811C2.1263 12.3431 2.0003 12.1071 2.0003 11.8551V8.38912C2.0003 6.28912 3.7123 4.58112 5.8173 4.58112H7.7843C7.9723 3.12912 9.2023 2.00012 10.7043 2.00012H13.2863C14.7873 2.00012 16.0183 3.12912 16.2063 4.58112H18.1833C20.2823 4.58112 21.9903 6.28912 21.9903 8.38912V11.8551C21.9903 12.1071 21.8633 12.3421 21.6543 12.4811C19.5923 13.8461 17.1443 14.7551 14.5763 15.1101C14.5413 15.1151 14.5073 15.1171 14.4733 15.1171C14.1343 15.1171 13.8313 14.8881 13.7463 14.5521C13.5443 13.7561 12.8213 13.1991 11.9903 13.1991C11.1483 13.1991 10.4333 13.7441 10.2113 14.5561ZM13.2863 3.50012H10.7043C10.0313 3.50012 9.4693 3.96012 9.3013 4.58112H14.6883C14.5203 3.96012 13.9583 3.50012 13.2863 3.50012Z" fill="#1949D8"/>
</svg>
